<svg width="308" height="213" viewBox="0 0 308 213" fill="none" xmlns="http://www.w3.org/2000/svg">
<path d="M308 0H0V213H308V0Z" fill="#F4F5FF"/>
<path d="M135.019 148.899C136.752 150.587 135.527 153.489 133.055 153.489H117.544C116.096 153.507 114.699 152.951 113.66 151.941C112.621 150.931 112.024 149.551 112 148.101V133.072C112 130.656 114.991 129.465 116.735 131.153L135.019 148.899ZM159.239 150.067C158.147 148.985 157.281 147.698 156.69 146.279C156.098 144.86 155.793 143.338 155.793 141.801C155.793 140.263 156.098 138.741 156.69 137.322C157.281 135.904 158.147 134.616 159.239 133.534L175.825 117.072C178.035 114.879 181.022 113.648 184.135 113.648C187.247 113.648 190.234 114.879 192.445 117.072C193.537 118.154 194.403 119.441 194.994 120.86C195.586 122.279 195.891 123.801 195.891 125.338C195.891 126.875 195.586 128.398 194.994 129.817C194.403 131.235 193.537 132.523 192.445 133.604L175.871 150.055C173.66 152.252 170.67 153.485 167.555 153.485C164.439 153.485 161.45 152.252 159.239 150.055V150.067ZM115.5 108.679C114.41 107.598 113.545 106.311 112.954 104.893C112.364 103.476 112.06 101.955 112.06 100.419C112.06 98.8827 112.364 97.3619 112.954 95.944C113.545 94.5266 114.41 93.2398 115.5 92.1587L143.37 64.4241C145.58 62.2307 148.567 61 151.68 61C154.792 61 157.779 62.2307 159.99 64.4241C161.081 65.5056 161.948 66.793 162.54 68.2119C163.131 69.6306 163.435 71.1527 163.435 72.6902C163.435 74.2275 163.131 75.7496 162.54 77.1686C161.948 78.5871 161.081 79.8746 159.99 80.9563L132.097 108.667C129.887 110.858 126.902 112.086 123.792 112.086C120.683 112.086 117.698 110.858 115.488 108.667L115.5 108.679ZM138.276 128.448C137.184 127.367 136.318 126.079 135.726 124.66C135.135 123.242 134.83 121.72 134.83 120.182C134.83 118.645 135.135 117.123 135.726 115.704C136.318 114.285 137.184 112.998 138.276 111.916L175.928 74.4821C178.139 72.2851 181.129 71.0522 184.244 71.0522C187.36 71.0522 190.349 72.2851 192.56 74.4821C193.65 75.5634 194.515 76.85 195.106 78.268C195.696 79.6853 196 81.2061 196 82.7423C196 84.2784 195.696 85.7992 195.106 87.2165C194.515 88.6345 193.65 89.9213 192.56 91.0024L154.908 128.459C152.697 130.656 149.707 131.889 146.592 131.889C143.476 131.889 140.487 130.656 138.276 128.459V128.448Z" fill="#E3E5F5"/>
</svg>
